name Walk6.mot
datacolumns 19
datarows 12
range 1.28000000 1.29100000
endheader

                time	   L_ground_force_vx	   L_ground_force_vy	   L_ground_force_vz	   L_ground_force_px	   L_ground_force_py	   L_ground_force_pz	   R_ground_force_vx	   R_ground_force_vy	   R_ground_force_vz	   R_ground_force_px	   R_ground_force_py	   R_ground_force_pz	   L_ground_torque_x	   L_ground_torque_y	   L_ground_torque_z	   R_ground_torque_x	   R_ground_torque_y	   R_ground_torque_z	
          1.28000000	         -6.63007202	        147.68542989	        -23.28794410	         -0.10261860	          0.00000000	          0.02271792	         -0.00000000	          0.00000000	          0.00000000	          0.00000000	          0.00000000	          0.00000000	          0.00000000	          0.19591892	          0.00000000	          0.00000000	         -0.00000000	          0.00000000	
          1.28100000	         -7.86819960	        159.13115458	        -24.92190809	         -0.10900257	          0.00000000	          0.02415378	         -0.00000000	          0.00000000	          0.00000000	          0.00000000	          0.00000000	          0.00000000	          0.00000000	          0.21564223	          0.00000000	          0.00000000	         -0.00000000	          0.00000000	
          1.28200000	         -9.18888527	        170.98327643	        -26.60478303	         -0.11552961	          0.00000000	          0.02562332	         -0.00000000	          0.00000000	          0.00000000	          0.00000000	          0.00000000	          0.00000000	          0.00000000	          0.23630774	          0.00000000	          0.00000000	         -0.00000000	          0.00000000	
          1.28300000	        -10.59434646	        183.23061171	        -28.33416385	         -0.12218604	          0.00000000	          0.02712360	         -0.00000000	          0.00000000	          0.00000000	          0.00000000	          0.00000000	          0.00000000	          0.00000000	          0.25791767	          0.00000000	          0.00000000	         -0.00000000	          0.00000000	
          1.28400000	        -12.08665648	        195.85930526	        -30.10722991	         -0.12895640	          0.00000000	          0.02865127	         -0.00000000	          0.00000000	          0.00000000	          0.00000000	          0.00000000	          0.00000000	          0.00000000	          0.28047053	          0.00000000	          0.00000000	         -0.00000000	          0.00000000	
          1.28500000	        -13.66772268	        208.85263945	        -31.92071807	         -0.13582332	          0.00000000	          0.03020258	         -0.00000000	          0.00000000	          0.00000000	          0.00000000	          0.00000000	          0.00000000	          0.00000000	          0.30396079	          0.00000000	          0.00000000	         -0.00000000	          0.00000000	
          1.28600000	        -15.33926306	        222.19083723	        -33.77089501	         -0.14276741	          0.00000000	          0.03177330	         -0.00000000	          0.00000000	          0.00000000	          0.00000000	          0.00000000	          0.00000000	          0.00000000	          0.32837856	          0.00000000	          0.00000000	         -0.00000000	          0.00000000	
          1.28700000	        -17.10278162	        235.85085951	        -35.65352898	         -0.14976717	          0.00000000	          0.03335876	         -0.00000000	          0.00000000	          0.00000000	          0.00000000	          0.00000000	          0.00000000	          0.00000000	          0.35370917	          0.00000000	          0.00000000	          0.00000000	          0.00000000	
          1.28800000	        -18.95954228	        249.80619720	        -37.56386093	         -0.15679885	          0.00000000	          0.03495379	         -0.00000000	          0.00000000	          0.00000000	          0.00000000	          0.00000000	          0.00000000	          0.00000000	          0.37993285	          0.00000000	          0.00000000	          0.00000000	          0.00000000	
          1.28900000	        -20.91054078	        264.02667405	        -39.49657523	         -0.16383669	          0.00000000	          0.03655273	         -0.00000000	          0.00000000	          0.00000000	          0.00000000	          0.00000000	          0.00000000	          0.00000000	          0.40702411	          0.00000000	          0.00000000	          0.00000000	          0.00000000	
          1.29000000	        -22.95647327	        278.47830788	        -41.44577039	         -0.17085400	          0.00000000	          0.03814973	         -0.00000000	          0.00000000	          0.00000000	          0.00000000	          0.00000000	          0.00000000	          0.00000000	          0.43495074	          0.00000000	          0.00000000	          0.00000000	          0.00000000	
          1.29100000	        -25.09770070	        293.12327200	        -43.40493238	         -0.17782493	          0.00000000	          0.03973902	         -0.00000000	          0.00000000	          0.00000000	          0.00000000	          0.00000000	          0.00000000	          0.00000000	          0.46367231	          0.00000000	          0.00000000	          0.00000000	          0.00000000	
